<?xml version="1.0" standalone="no"?>
<!DOCTYPE svg PUBLIC "-//W3C//DTD SVG 1.1//EN" "http://www.w3.org/Graphics/SVG/1.1/DTD/svg11.dtd" >
<svg xmlns="http://www.w3.org/2000/svg" xmlns:xlink="http://www.w3.org/1999/xlink" version="1.1">
<metadata></metadata>
<defs>
<font id="bangla_mnregular" horiz-adv-x="1342" >
<font-face units-per-em="2048" ascent="1638" descent="-410" />
<missing-glyph horiz-adv-x="682" />
<glyph horiz-adv-x="0" />
<glyph unicode="&#xd;" horiz-adv-x="682" />
<glyph unicode=" "  horiz-adv-x="682" />
<glyph unicode="&#x09;" horiz-adv-x="682" />
<glyph unicode="&#xa0;" horiz-adv-x="682" />
<glyph unicode="!" horiz-adv-x="678" d="M199 1434q0 43 12 77.5t31.5 59t45 37.5t51.5 13q59 0 99.5 -50t40.5 -137q0 -113 -14 -238t-32.5 -257t-35.5 -267.5t-22 -266.5h-73q-6 131 -22.5 266.5t-34 267.5t-32 257t-14.5 238zM208 89q0 26 10.5 48.5t28 40t41.5 27t51 9.5t50.5 -9.5t41 -27t28 -40t10.5 -48.5 t-10.5 -49.5t-28 -40.5t-41 -27t-50.5 -10t-51 10t-41.5 27t-28 40.5t-10.5 49.5z" />
<glyph unicode="&#x22;" horiz-adv-x="897" d="M131 1501q0 25 9.5 47t25.5 38t38 25.5t49 9.5q51 0 85.5 -34.5t34.5 -85.5q0 -73 -10.5 -137t-25.5 -128.5t-31 -135.5t-26 -159h-56q-11 88 -27 159t-31 135.5t-25 128.5t-10 137zM525 1501q0 25 9.5 47t25.5 38t38 25.5t48 9.5q51 0 86 -34.5t35 -85.5q0 -73 -11 -137 t-25.5 -128.5t-30.5 -135.5t-26 -159h-56q-11 88 -27 159t-31 135.5t-25 128.5t-10 137z" />
<glyph unicode="#" horiz-adv-x="1194" d="M11 456v91h225l83 394h-308v89h327l118 555h122l-119 -555h395l120 555h118l-116 -555h207v-89h-226l-83 -394h309v-88h-329l-111 -517h-121l112 517h-396l-113 -517h-120l113 514h-207zM356 547h396l84 394h-396z" />
<glyph unicode="$" horiz-adv-x="1249" d="M131 69v322h56q11 -91 37.5 -155t71.5 -104.5t110 -59.5t154 -19v663q-84 46 -161.5 97.5t-137.5 113.5t-95 137t-35 168q0 77 33 145t91 120.5t136.5 85t168.5 38.5v113h93v-113q63 -3 117.5 -14t104 -26t95 -33.5t90.5 -37.5v-349h-46q-14 107 -44 174.5t-76 107.5 t-107 59t-134 29v-601q84 -46 168 -99.5t150 -118.5t106.5 -142t40.5 -170q0 -85 -33 -161t-93.5 -135.5t-146.5 -97t-192 -44.5v-106h-93v106q-64 1 -121 8t-109 19.5t-101.5 32.5t-97.5 47zM336 1289q0 -44 17 -86t46.5 -80.5t71 -72t89.5 -60.5v541q-48 -7 -89.5 -29.5 t-71 -55.5t-46.5 -74t-17 -83zM653 53q56 10 103.5 37.5t82.5 66t55 85.5t20 96q0 51 -20 96t-55 85t-82.5 74.5t-103.5 64.5v-605z" />
<glyph unicode="%" horiz-adv-x="2007" d="M85 1183q0 81 22.5 159.5t65 140.5t105 100t143.5 38q82 0 144.5 -38t104.5 -100t63 -140.5t21 -159.5q0 -80 -21.5 -155.5t-63.5 -134.5t-105 -95t-145 -36q-81 0 -143.5 36t-104.5 95t-64 135t-22 155zM270 1183q0 -25 1.5 -60.5t6.5 -76t15 -80.5t26.5 -72t41 -51.5 t58.5 -19.5t58.5 19t41.5 51t27 72t15.5 79.5t7 76t1.5 62.5q0 25 -1.5 62.5t-7.5 80t-15.5 84.5t-26 75.5t-40 54.5t-56.5 21q-34 0 -58.5 -20.5t-41.5 -54t-28 -75t-16.5 -83t-7 -80.5t-1.5 -65zM385 -38l1136 1659h105l-1137 -1659h-104zM1253 385q0 80 22 158 t64.5 140.5t105 101t143.5 38.5q82 0 144.5 -38.5t105 -101t63.5 -141t21 -157.5q0 -80 -22 -155.5t-64 -135t-105 -96t-145 -36.5q-81 0 -143.5 36.5t-104.5 96t-63.5 135t-21.5 155.5zM1437 385q0 -24 1.5 -60.5t7 -77t15 -80.5t26 -72t41 -52t58.5 -20t58.5 20t41.5 51 t27.5 71t15.5 80.5t6.5 76.5t1.5 63q0 25 -1.5 62.5t-7 79.5t-15.5 84t-26.5 75.5t-39.5 54.5t-56 21q-34 0 -58.5 -20.5t-42 -54t-28 -75t-16.5 -83.5t-7.5 -80t-1.5 -64z" />
<glyph unicode="&#x26;" horiz-adv-x="1865" d="M85 307q0 109 41 193.5t108.5 151t153.5 119t177 96.5q-50 106 -79 194t-29 148q0 79 26 153t77.5 132t129 92.5t180.5 34.5q76 0 144 -22t118 -64.5t79 -104t29 -139.5q0 -79 -37 -137t-96.5 -105t-136 -85t-153.5 -74q63 -117 150.5 -235t189.5 -228q59 66 103 128 t74.5 118t49.5 106t28 93l61 -18q-15 -84 -35.5 -151t-50.5 -126.5t-68.5 -115.5t-87.5 -119q92 -92 174 -146t150 -54q89 0 153.5 35t102.5 123l45 -16q-16 -77 -51.5 -137.5t-86.5 -101t-116.5 -62t-141.5 -21.5q-99 0 -202 56.5t-203 148.5q-58 -46 -122 -83 t-133.5 -64.5t-144 -42.5t-153.5 -15q-112 0 -191 26t-129 71.5t-73.5 108.5t-23.5 139zM328 412q0 -65 20.5 -121.5t59.5 -98t94.5 -64.5t125.5 -23q94 0 179.5 41.5t163.5 102.5q-55 58 -104.5 123.5t-94.5 135t-86.5 140t-79.5 139.5q-60 -35 -111 -76.5t-88 -89.5 t-58 -100.5t-21 -108.5zM682 1291q0 -72 25.5 -158t71.5 -170q61 32 115.5 66t93.5 74t62 88.5t23 106.5t-15 103t-40.5 77t-60 48.5t-73.5 16.5q-43 0 -80 -23t-64.5 -59.5t-42.5 -81t-15 -88.5z" />
<glyph unicode="'" horiz-adv-x="414" d="M86 1501q0 51 35 85.5t86 34.5q25 0 47 -9.5t38.5 -25.5t26.5 -38t10 -47q0 -73 -11 -137t-25.5 -128.5t-30.5 -135.5t-26 -159h-57q-11 88 -27.5 159t-30.5 135.5t-24.5 128.5t-10.5 137z" />
<glyph unicode="(" horiz-adv-x="877" d="M171 556q0 114 22.5 227.5t65.5 219.5t104 202.5t138 176.5t167.5 141.5t192.5 97.5v-41q-130 -86 -215.5 -201.5t-137.5 -248.5t-73.5 -279.5t-21.5 -294.5q0 -146 17.5 -289t66.5 -274.5t136.5 -244.5t227.5 -200v-42q-102 36 -193 96.5t-168 139.5t-137.5 173 t-103.5 198.5t-65.5 217t-22.5 225.5z" />
<glyph unicode=")" horiz-adv-x="876" d="M16 -452q140 86 227.5 199.5t136 245t66 275t17.5 288.5q0 148 -21.5 294.5t-73 279.5t-137 248.5t-215.5 201.5v41q102 -36 192.5 -97.5t167.5 -141.5t138 -176.5t103.5 -202.5t65 -219.5t22.5 -227.5t-22.5 -226t-64.5 -216.5t-103 -198.5t-138 -173t-168 -139 t-193 -97v42z" />
<glyph unicode="*" horiz-adv-x="940" d="M51 1348q0 23 12 39q11 20 31.5 30.5t45.5 10.5q36 0 72 -18q27 -17 55 -48t57 -64.5t60.5 -65t67.5 -51.5q0 39 -12 82.5t-26 86.5t-25.5 82t-11.5 71q0 51 27 84.5t66 33.5t66 -33.5t27 -84.5q0 -32 -12 -71t-25.5 -82t-25.5 -86.5t-12 -82.5q34 20 66 52t61.5 65.5 t57.5 63.5t55 45q35 20 70 21q25 0 45.5 -11t31.5 -30q10 -19 10 -40q0 -28 -17 -55.5t-49 -45.5q-27 -16 -66.5 -25t-82.5 -19t-85.5 -21t-77.5 -32q33 -19 76.5 -30t87.5 -20t83.5 -18t66.5 -25q32 -19 48.5 -47t16.5 -56q0 -22 -10 -39q-11 -19 -31 -29.5t-45 -10.5 q-17 0 -35.5 4.5t-36.5 14.5q-27 15 -55 45t-57.5 63t-61 65t-66.5 52q0 -40 12 -83t25.5 -86t25.5 -82.5t12 -70.5q0 -51 -27 -84.5t-66 -33.5t-66 33.5t-27 84.5q0 32 11 71.5t25 82t26 86t13 82.5q-34 -20 -66 -52.5t-61.5 -65.5t-58.5 -62.5t-57 -45.5q-36 -20 -70 -20 q-25 0 -45 10t-31 29q-10 17 -11 39q0 28 18 56.5t48 47.5q26 15 66 24t84.5 18.5t88 21t78.5 31.5q-34 20 -78 31.5t-88 21t-83.5 19t-66.5 25.5q-32 19 -50 47t-18 55z" />
<glyph unicode="+" horiz-adv-x="1356" d="M69 836v98h550v527h102v-527h551v-98h-551v-527h-102v527h-550z" />
<glyph unicode="," horiz-adv-x="606" d="M102 98q0 31 12.5 57t35 46t52 30.5t63.5 10.5q44 0 82.5 -19t67 -53.5t45 -80t16.5 -96.5q0 -81 -30.5 -149t-81.5 -118.5t-119 -81.5t-143 -35v55q55 15 102 43t82.5 64t56 78t20.5 86q0 26 -10.5 45.5t-25.5 19.5t-25.5 -5.5t-21 -13t-24.5 -13.5t-36 -6 q-24 0 -45 10.5t-37.5 28.5t-26 42.5t-9.5 54.5z" />
<glyph unicode="-" horiz-adv-x="698" d="M58 501v140h583v-140h-583z" />
<glyph unicode="." horiz-adv-x="522" d="M131 89q0 26 10 48.5t28 40t42 27t51 9.5t50.5 -9.5t41 -27t27.5 -40t10 -48.5t-10 -49.5t-27.5 -40.5t-41 -27t-50.5 -10t-51 10t-42 27t-28 40.5t-10 49.5z" />
<glyph unicode="/" horiz-adv-x="614" d="M-13 -38l532 1659h109l-531 -1659h-110z" />
<glyph unicode="0" d="M86 802q0 168 42.5 317.5t119 261t184 176t239.5 64.5t239.5 -64.5t184.5 -176t119 -260.5t42 -318q0 -184 -42 -338.5t-119 -266t-184.5 -173.5t-239.5 -62t-239.5 62t-184 173.5t-119 266t-42.5 338.5zM354 802q0 -100 8.5 -195.5t26 -180t44 -155t61.5 -121.5 t79.5 -79.5t97.5 -28.5t98 28.5t80.5 79.5t62 121.5t44 155t26 180t8.5 195.5q0 150 -19.5 284.5t-59 236t-99.5 161t-141 59.5t-140.5 -59.5t-98.5 -161t-58.5 -236t-19.5 -284.5z" />
<glyph unicode="1" d="M398 1341v68q146 1 233 56t135 156h124v-1621h-226v1341h-266z" />
<glyph unicode="2" d="M104 0v42q176 167 305 294.5t219 226t146.5 172t87.5 131.5t42.5 106.5t11.5 97.5q0 71 -22 136.5t-65.5 116.5t-108 82t-149.5 31q-66 0 -129.5 -23t-116 -61.5t-87.5 -91t-46 -111.5h-46q7 98 51 184t113 150t157.5 101t186.5 37q123 0 216.5 -35t155.5 -95t93.5 -139 t31.5 -166q0 -92 -40 -186t-131 -210t-237 -264t-356 -346h847l-118 -180h-1012z" />
<glyph unicode="3" d="M146 93q0 25 12.5 42t31.5 27.5t42 15t43 4.5q42 0 73 -8.5t55 -21t44.5 -26.5t43 -27t50.5 -21.5t67 -8.5q83 0 146 27.5t106 73t65.5 104.5t22.5 124q0 82 -31.5 152.5t-96.5 122.5t-163.5 81t-233.5 29v42q90 10 165 41t129 79.5t84 113.5t30 144q0 52 -20.5 98 t-58 80t-90 53.5t-116.5 19.5q-44 0 -93 -15.5t-94 -42.5t-83 -63t-62 -77l-47 18q25 72 68 135t102 110.5t134.5 74.5t167.5 27q86 0 162 -25.5t132.5 -70.5t89.5 -106.5t33 -132.5q0 -36 -19 -82t-52 -92.5t-76.5 -91t-92.5 -79.5q68 -20 128 -63t104 -100.5t69.5 -123.5 t25.5 -132q0 -141 -55 -245.5t-151.5 -174.5t-228.5 -105t-285 -35q-65 0 -116 10t-87 27t-55 41t-19 53z" />
<glyph unicode="4" d="M59 410v144l831 1067h151v-1038h225v-173h-225v-410h-225v410h-757zM216 583h600v780z" />
<glyph unicode="5" d="M184 121q0 43 33 63.5t78 20.5q48 0 81.5 -18.5t68 -40t78.5 -39.5t111 -18q77 0 146 30.5t120 83.5t80.5 124t29.5 153q0 110 -55 199.5t-157.5 152.5t-247.5 98t-324 35l341 620h623l-100 -196h-513l-118 -215q148 0 279.5 -46t231.5 -129t158.5 -197t58.5 -248 q1 -122 -53.5 -230t-150.5 -188t-225 -127t-276 -47q-67 0 -121.5 12.5t-93.5 34.5t-61 51t-22 61z" />
<glyph unicode="6" d="M114 594q0 139 34.5 269t100 244t159.5 209t214 162.5t262.5 105t305.5 37.5v-41q-142 -13 -272 -74t-234 -157t-177.5 -219t-103.5 -258q39 27 79.5 50t87 40.5t98 27.5t111.5 10q96 0 179.5 -37.5t146.5 -102t99.5 -150.5t36.5 -185q0 -116 -45 -218.5t-121.5 -179 t-179 -121t-218.5 -44.5q-124 0 -227.5 49.5t-178 135.5t-116 201t-41.5 246zM380 585q0 -108 20 -206.5t61 -173t103 -119t146 -44.5q59 0 111 29.5t90.5 80.5t60.5 119t22 147q0 99 -26.5 186.5t-72 152t-106.5 102.5t-130 38q-28 0 -62.5 -7t-69 -19.5t-68 -30.5 t-60.5 -38q-9 -53 -14 -109t-5 -108z" />
<glyph unicode="7" d="M162 1389l89 196h956v-42l-579 -1581h-152l521 1427h-835z" />
<glyph unicode="8" d="M172 352q0 76 24 137.5t68.5 115t109 101.5t144.5 96q-86 64 -147.5 116.5t-100.5 103t-57 104t-18 119.5q0 77 35.5 146t97.5 120t146 80.5t178 29.5q107 0 198 -26.5t156.5 -74.5t102.5 -113.5t37 -141.5q0 -49 -31.5 -105t-82.5 -109.5t-117 -98.5t-136 -71 q102 -59 179 -126.5t128 -134t76 -128.5t25 -110q0 -86 -40 -162.5t-109 -134t-161.5 -90.5t-197.5 -33q-112 0 -205 30t-160 82t-104.5 123.5t-37.5 154.5zM372 371q0 -68 24.5 -128t67 -105t99.5 -70.5t121 -25.5q66 0 124 18.5t101 49t68 72t25 89.5q0 34 -13.5 72.5 t-37 77.5t-54 74t-64.5 61l-256 202q-56 -44 -94.5 -95t-63 -102t-36 -100t-11.5 -90zM385 1312q0 -58 31 -111.5t79.5 -102t108 -91.5t116.5 -82q52 41 95 84t73 91.5t46.5 102.5t16.5 116q0 47 -20 87.5t-58 71t-92 48t-122 17.5q-60 0 -111 -20t-87.5 -52.5t-56 -74 t-19.5 -84.5z" />
<glyph unicode="9" d="M104 1070q0 114 43.5 214.5t120 175.5t178.5 118t218 43t218.5 -49.5t179.5 -134.5t122 -200.5t45 -246.5q0 -141 -39 -272.5t-110 -245.5t-170 -207.5t-219.5 -161t-259.5 -104.5t-288 -37v43q134 13 260.5 71.5t231.5 151.5t180 213.5t105 254.5q-40 -24 -79.5 -45.5 t-84 -38t-95 -25.5t-109.5 -9q-104 0 -187 41.5t-141 110t-89 157t-31 183.5zM348 1170q0 -106 19 -195t58.5 -153.5t101 -100.5t147.5 -36q33 0 70 8t73 21.5t68.5 32t55.5 38.5q8 51 14 113.5t6 124.5q0 106 -26 200.5t-71.5 165.5t-107 112.5t-131.5 41.5 q-73 0 -125.5 -33t-86 -86t-49.5 -119.5t-16 -134.5z" />
<glyph unicode=":" horiz-adv-x="522" d="M131 89q0 26 10 48.5t28 40t42 27t51 9.5t50.5 -9.5t41 -27t27.5 -40t10 -48.5t-10 -49.5t-27.5 -40.5t-41 -27t-50.5 -10t-51 10t-42 27t-28 40.5t-10 49.5zM131 967q0 26 10 49t28 40t42 27t51 10t50.5 -10t41 -27t27.5 -40t10 -49t-10 -49.5t-27.5 -40.5t-41 -26.5 t-50.5 -9.5t-51 9.5t-42 26.5t-28 40.5t-10 49.5z" />
<glyph unicode=";" horiz-adv-x="634" d="M131 98q0 31 12.5 57t34.5 46t51.5 30.5t64.5 10.5q44 0 82 -19t66.5 -53.5t45 -80t16.5 -96.5q0 -81 -30 -149t-81.5 -118.5t-119 -81.5t-142.5 -35v55q55 15 102 43t82 64t55.5 78t20.5 86q0 26 -10 45.5t-26 19.5q-15 0 -25 -5.5t-21 -13t-24.5 -13.5t-36.5 -6 q-24 0 -45 10.5t-37.5 28.5t-25.5 42.5t-9 54.5zM177 963q0 27 10.5 50.5t28 41.5t41.5 28t51 10t50.5 -10t41.5 -28t28 -41.5t10 -50.5t-10 -51.5t-28 -42t-41 -27.5t-51 -10q-27 0 -51 10t-41.5 27.5t-28 41.5t-10.5 52z" />
<glyph unicode="&#x3c;" horiz-adv-x="1414" d="M91 771v68l1203 520v-121l-1003 -431l1003 -413v-121z" />
<glyph unicode="=" horiz-adv-x="1421" d="M109 604v121h1203v-121h-1203zM109 994v122h1203v-122h-1203z" />
<glyph unicode="&#x3e;" horiz-adv-x="1414" d="M121 273v121l1002 413l-1002 431v121l1202 -520v-68z" />
<glyph unicode="?" horiz-adv-x="1101" d="M116 1265q0 96 39.5 163.5t101.5 110.5t137.5 62.5t148.5 19.5q97 0 178.5 -26t141 -74.5t92.5 -118.5t33 -157q0 -86 -33 -160t-82.5 -141t-107 -131.5t-107 -133t-82.5 -144t-33 -164.5h-56q0 104 19.5 185t48 148t62 126.5t62 119.5t47.5 127.5t19 150.5 q0 77 -19 134.5t-54 95.5t-82 57t-103 19q-48 0 -89.5 -11.5t-71 -32t-46.5 -48.5t-17 -61q0 -34 12 -55t25.5 -39t25.5 -37t12 -47q0 -50 -27.5 -80t-65.5 -30q-27 0 -50.5 12.5t-41.5 36t-27.5 55t-9.5 68.5zM394 93q0 27 10 50.5t27.5 42t42 28.5t51.5 10t50 -10 t41 -28.5t28 -41.5t10 -51q0 -27 -10 -51t-28 -41.5t-41 -28t-50 -10.5t-51.5 10.5t-42 28t-27.5 41.5t-10 51z" />
<glyph unicode="@" horiz-adv-x="2260" d="M137 546q0 155 37.5 295t107.5 259.5t169.5 215.5t222 164.5t267 104.5t305.5 36q115 0 220 -26.5t195.5 -76.5t164.5 -122.5t126 -164t80.5 -201.5t28.5 -234q0 -110 -23 -214.5t-64.5 -197t-98 -170t-124 -133.5t-143 -87.5t-155.5 -31.5q-50 0 -92.5 8t-74 28.5 t-49 55t-17.5 86.5q0 39 4 81t14 85q-7 -8 -13 -19t-14 -20q-43 -50 -92 -104t-101.5 -98.5t-108.5 -73.5t-113 -29t-97 23.5t-66.5 62t-39 89t-12.5 103.5q0 81 25 175.5t70 189.5t106.5 183t134.5 155.5t154.5 108.5t165.5 41q38 0 68 -17.5t51.5 -46t35 -64t19.5 -71.5 l46 153l192 23l-219 -739q-14 -47 -22.5 -88.5t-8.5 -84.5q0 -24 4 -45t14 -37t24.5 -25t35.5 -9q52 0 109 28t111 78.5t102.5 121t85 155.5t58 181t21.5 198q0 162 -58.5 297t-156.5 232.5t-227.5 152.5t-271.5 55q-228 0 -414 -78.5t-318.5 -216t-205.5 -321.5t-73 -396 q0 -124 30 -242.5t87 -223t138.5 -191.5t185 -149.5t226.5 -98t262 -35.5q123 0 229.5 28t196 75t163 111.5t132 137.5t103.5 151t76 153l89 -25q-73 -165 -165.5 -299t-213.5 -228.5t-275.5 -145.5t-349.5 -51q-237 0 -425.5 82t-320 224t-201 333.5t-69.5 410.5zM740 275 q0 -25 5 -53.5t19.5 -53t39 -40.5t64.5 -16q58 0 117 36t113.5 97t101.5 139.5t82.5 161.5t55 164.5t19.5 149.5q0 33 -14.5 64.5t-37.5 55.5t-49 38t-50 14q-65 0 -124.5 -38.5t-111.5 -102t-94.5 -144t-72.5 -165t-46.5 -164.5t-16.5 -143z" />
<glyph unicode="A" horiz-adv-x="1587" d="M6 0l763 1621h66l747 -1621h-271l-243 529h-679l-250 -529h-133zM436 631h583l-287 627z" />
<glyph unicode="B" horiz-adv-x="1549" d="M199 0v1585h638q126 0 232 -28.5t182 -79.5t118 -123t42 -158q0 -65 -13.5 -116t-46.5 -95t-89 -83.5t-140 -78.5v-5q84 -14 153 -46t117 -82.5t74.5 -115.5t26.5 -145q0 -90 -39.5 -168.5t-111.5 -136.5t-174.5 -91t-228.5 -33h-740zM465 116h288q116 0 201.5 22t141 62 t82.5 96.5t27 123.5q0 75 -24 140t-78.5 112t-142 74.5t-215.5 27.5h-280v-658zM465 872h339q80 0 142.5 22.5t105.5 63t65 95t22 119.5q0 69 -26 126t-82 97.5t-141.5 62t-204.5 21.5h-220v-607z" />
<glyph unicode="C" horiz-adv-x="1850" d="M131 787q0 112 29 217t83 198t132.5 170.5t177 132.5t215.5 85.5t250 30.5q126 0 232.5 -34t195 -90.5t156.5 -130t117 -153.5l-115 -77q-100 192 -223 282t-282 90q-138 0 -257.5 -50.5t-208 -143.5t-139.5 -226.5t-51 -300.5t50 -299t137.5 -223.5t207.5 -140 t260 -48.5q83 0 160.5 32.5t144 84.5t119 117t86.5 133l111 -72q-49 -80 -115.5 -154t-154 -130t-198 -90.5t-246.5 -34.5q-131 0 -247 30.5t-213.5 84.5t-174 130t-129.5 167.5t-81.5 196.5t-28.5 216z" />
<glyph unicode="D" horiz-adv-x="1839" d="M199 0v1585h527q245 0 420.5 -45.5t292.5 -145.5q134 -114 202 -262.5t68 -324.5q0 -167 -61 -314t-177.5 -257t-288 -173t-391.5 -63h-592zM465 116h283q134 0 252 44.5t206.5 131.5t139 215t50.5 295q0 146 -48 268t-133.5 210.5t-204.5 138t-260 49.5h-285v-1352z" />
<glyph unicode="E" horiz-adv-x="1397" d="M199 0v1585h1101v-102h-835v-567h559v-102h-559v-712h835v-102h-1101z" />
<glyph unicode="F" horiz-adv-x="1249" d="M199 0v1585h1039v-102h-773v-567h559v-102h-559v-814h-266z" />
<glyph unicode="G" horiz-adv-x="1903" d="M131 781q0 112 29.5 217.5t84 198.5t133.5 171t178 134.5t216 87.5t249 31q126 0 232.5 -34t194.5 -90.5t156.5 -130t116.5 -153.5l-114 -77q-100 192 -223.5 282t-282.5 90q-143 0 -263.5 -51.5t-209 -146t-137 -228.5t-48.5 -301t53.5 -301.5t145.5 -229t217 -146 t269 -51.5q105 0 189 28.5t150 81.5v556h-300v95h566v-698q-69 -38 -140 -66t-152 -48t-179.5 -30t-222.5 -10q-131 0 -250 30t-219.5 83.5t-182 128.5t-138.5 166t-87.5 195t-30.5 216z" />
<glyph unicode="H" horiz-adv-x="1727" d="M199 0v1585h266v-723h797v723h266v-1585h-266v760h-797v-760h-266z" />
<glyph unicode="I" horiz-adv-x="664" d="M199 0v1585h266v-1585h-266z" />
<glyph unicode="J" horiz-adv-x="1112" d="M16 157l84 113q26 -22 63 -54t81 -61.5t91 -50.5t95 -21q105 0 161 55t56 149v1298h267v-1131q0 -86 -16 -170.5t-64 -151t-136.5 -107.5t-234.5 -41q-82 0 -148.5 15.5t-120.5 40t-97.5 55.5t-80.5 62z" />
<glyph unicode="K" horiz-adv-x="1690" d="M199 0v1585h266v-702l833 702h174l-792 -667l1005 -918h-339l-881 804v-804h-266z" />
<glyph unicode="L" horiz-adv-x="1285" d="M199 0v1585h266v-1483h798v-102h-1064z" />
<glyph unicode="M" horiz-adv-x="2172" d="M199 0v1585h272l617 -1216h12l606 1216h267v-1585h-267v1298h-10l-649 -1298h-55l-657 1289h-19v-1289h-117z" />
<glyph unicode="N" horiz-adv-x="1713" d="M199 0v1585h149l1039 -1158h10v1158h117v-1623h-61l-1125 1290h-9v-1252h-120z" />
<glyph unicode="O" horiz-adv-x="2009" d="M131 802q0 114 30.5 218.5t86.5 195.5t135.5 165.5t176 128t209.5 82.5t236 29t235.5 -29t209 -82.5t176.5 -128t135.5 -165.5t86 -195.5t30.5 -218.5q0 -115 -30.5 -222.5t-86 -200.5t-135.5 -170t-176.5 -131.5t-209 -85t-235.5 -30.5t-236 30.5t-209.5 85t-176 131.5 t-135.5 170t-86.5 200t-30.5 223zM443 802q0 -165 35.5 -304.5t106 -240.5t176 -158t244.5 -57q135 0 239.5 57t176 158t108.5 240.5t37 304.5q0 163 -37 299t-108.5 234.5t-176 153t-239.5 54.5q-139 0 -244.5 -54.5t-176 -153t-106 -234.5t-35.5 -299z" />
<glyph unicode="P" horiz-adv-x="1330" d="M199 0v1585h502q124 0 232.5 -30t189 -88t127 -142.5t46.5 -192.5t-45 -188t-118.5 -133t-167 -78.5t-190.5 -25.5q-41 0 -86.5 2t-87.5 6t-78 8.5t-58 10.5v-734h-266zM465 823q44 -13 96 -24.5t106 -11.5q86 0 150.5 26t107 70.5t63.5 104.5t21 128q0 80 -28 145.5 t-75.5 111t-112.5 70.5t-139 25h-189v-645z" />
<glyph unicode="Q" horiz-adv-x="1988" d="M131 802q0 113 29.5 217.5t84.5 195.5t132.5 166t173.5 128t208.5 82.5t234.5 29.5q123 0 234.5 -29.5t208 -82.5t174 -128t133 -166t85 -195.5t29.5 -217.5q0 -92 -22 -182.5t-63 -174.5t-99.5 -158.5t-131.5 -135t-158.5 -103t-180.5 -62.5q26 -79 87.5 -157.5 t147 -141t190.5 -102t220 -39.5v-42q-116 0 -231.5 21.5t-223 59t-206 86.5t-182 103.5t-150.5 111.5t-110 109q-135 33 -247.5 114.5t-194 192t-127 240t-45.5 260.5zM432 802q0 -165 36 -304.5t106.5 -240.5t175.5 -158t244 -57q134 15 239 74t176.5 156.5t108.5 231 t37 298.5q0 163 -37 299t-108 234.5t-175.5 153t-240.5 54.5q-139 0 -244 -54.5t-175.5 -153t-106.5 -234.5t-36 -299z" />
<glyph unicode="R" horiz-adv-x="1510" d="M199 0v1585h549q143 0 250.5 -31t179 -86t108 -130.5t36.5 -165.5q0 -74 -28 -138.5t-79 -116t-122.5 -89.5t-158.5 -59l577 -769h-308l-551 745h-187v-745h-266zM465 825h154q90 0 165.5 24t131.5 67.5t87 106t31 140.5q0 71 -25 130.5t-69.5 102t-105.5 66.5t-134 24 h-235v-661z" />
<glyph unicode="S" horiz-adv-x="1283" d="M52 335l144 59q25 -77 67 -139t98.5 -104.5t125.5 -64.5t146 -22q59 0 116.5 16t102.5 47.5t72 77.5t27 107q0 73 -37.5 129t-98.5 104t-139.5 89.5t-159.5 83.5t-159.5 88t-139.5 102.5t-98.5 126.5t-37.5 161t34 169t100 134.5t162 89t221 32.5q225 0 355.5 -94.5 t188.5 -272.5l-136 -63q-24 73 -61 133.5t-89 103.5t-119 66.5t-151 23.5q-75 0 -131.5 -21t-93.5 -54.5t-55.5 -76.5t-18.5 -87q0 -63 38.5 -114.5t101 -98.5t143.5 -89.5t164.5 -87t164.5 -92t143.5 -104.5t101 -124.5t38.5 -150.5q0 -94 -36 -177t-107.5 -145t-178 -98 t-247.5 -36q-114 0 -203.5 25.5t-158.5 73t-118 117t-81 157.5z" />
<glyph unicode="T" horiz-adv-x="1505" d="M46 1483v102h1414v-102h-574v-1483h-266v1483h-574z" />
<glyph unicode="U" horiz-adv-x="1710" d="M171 562v1023h266v-1029q0 -101 34.5 -190.5t99.5 -156.5t156 -105.5t204 -38.5q114 0 205 38.5t154.5 105.5t97.5 156.5t34 190.5v1029h117v-1029q0 -122 -39 -229t-123 -188.5t-215.5 -129t-316.5 -47.5q-164 0 -290 47.5t-211.5 129.5t-129 191t-43.5 232z" />
<glyph unicode="V" horiz-adv-x="1570" d="M6 1585h281l597 -1261l556 1261h127l-720 -1623h-69z" />
<glyph unicode="W" horiz-adv-x="2179" d="M1 1585h268l472 -1205l416 1088l430 -1093l461 1210h131l-610 -1599h-81l-390 989l-377 -989h-91z" />
<glyph unicode="X" horiz-adv-x="1578" d="M0 0l668 782l-609 803h316l460 -609l519 609h141l-595 -696l675 -889h-318l-524 694l-593 -694h-140z" />
<glyph unicode="Y" horiz-adv-x="1522" d="M3 1585h273l550 -803l547 803h145l-615 -900v-685h-266v660z" />
<glyph unicode="Z" horiz-adv-x="1542" d="M22 0v40l1112 1443h-1112v102h1505l-1147 -1483h1147v-102h-1505z" />
<glyph unicode="[" horiz-adv-x="732" d="M199 -452v2073h522v-107h-335v-1859h335v-107h-522z" />
<glyph unicode="\" horiz-adv-x="617" d="M-11 1621h109l531 -1659h-109z" />
<glyph unicode="]" horiz-adv-x="731" d="M11 -345h336v1859h-336v107h521v-2073h-521v107z" />
<glyph unicode="^" horiz-adv-x="1117" d="M9 765l512 856h75l512 -856h-147l-405 680l-408 -680h-139z" />
<glyph unicode="_" horiz-adv-x="1273" d="M-2 -233h1281v-107h-1281v107z" />
<glyph unicode="`" horiz-adv-x="729" d="M114 1621h293l123 -412h-65z" />
<glyph unicode="a" horiz-adv-x="1224" d="M68 279q0 79 31.5 142t85.5 113t126 88.5t153 69t167 54.5t168 45v76q0 83 -16.5 140.5t-47.5 93t-74.5 50.5t-98.5 15q-61 0 -100 -16t-61 -42t-30 -59.5t-8 -67.5q0 -32 -5 -61.5t-19 -52t-37 -36t-60 -13.5q-28 0 -51.5 11t-40.5 30t-26 45.5t-9 56.5q0 60 40 112.5 t107 91t157 60.5t189 22q121 0 203.5 -23.5t134 -65.5t74 -102t22.5 -133v-923h-243v167q-43 -33 -85 -67t-90 -62.5t-106.5 -46t-136.5 -17.5q-72 0 -130 23t-98.5 64t-62.5 97t-22 121zM311 342q0 -44 16.5 -84.5t43.5 -70.5t63 -47.5t75 -17.5q41 0 78 10.5t71.5 29 t69 43t71.5 51.5v456q-52 -17 -108.5 -38.5t-110.5 -48.5t-103 -58t-86 -66.5t-58.5 -75t-21.5 -83.5z" />
<glyph unicode="b" horiz-adv-x="1377" d="M142 119v1660l172 69h71v-855q30 51 78 97.5t105 81t118.5 55t117.5 20.5q107 0 196.5 -43t154.5 -117t101.5 -173t36.5 -212q0 -101 -24.5 -194t-68.5 -173.5t-106.5 -147t-138 -114t-163 -73.5t-181.5 -26q-135 0 -256 35t-213 110zM385 200q23 -23 50 -45t60 -40 t74 -29.5t92 -11.5q85 0 154.5 41t119 114.5t77 174t27.5 220.5q0 91 -28 170.5t-76.5 138t-114 92.5t-138.5 34q-41 0 -85 -11t-84 -31.5t-73.5 -48t-54.5 -58.5v-710z" />
<glyph unicode="c" horiz-adv-x="1307" d="M85 578q0 139 49.5 260.5t136 212.5t201.5 143.5t247 52.5q102 0 188.5 -22t149.5 -61.5t98 -93t35 -114.5q0 -27 -14 -51.5t-37 -43t-52 -29.5t-58 -11q-33 0 -59.5 12t-45 31t-28.5 43t-10 49q0 42 -9 79t-31.5 63.5t-62.5 42t-101 15.5q-83 0 -149.5 -33.5t-112 -90.5 t-69 -134t-23.5 -163q0 -117 30.5 -222t86.5 -183.5t134.5 -124.5t174.5 -46q85 0 148 27t109 72.5t79 105.5t59 128l73 -30q-31 -115 -83 -206t-123.5 -153.5t-160.5 -95.5t-194 -33q-119 0 -224.5 47t-183.5 129t-123 192.5t-45 235.5z" />
<glyph unicode="d" horiz-adv-x="1390" d="M85 595q0 83 23.5 164t65 153t100 133.5t130.5 106.5t153 70t170 25t156 -31.5t124 -82.5v645l169 70h72v-1874h-241v145q-42 -34 -91 -60.5t-102 -45.5t-107 -29t-105 -10q-108 0 -202 50t-164 135.5t-110.5 198t-40.5 237.5zM354 664q0 -116 30 -217.5t82.5 -177.5 t122.5 -119.5t149 -43.5q39 0 77 10t73 27t65.5 40t53.5 48v603q0 72 -27 131.5t-70 101.5t-97.5 65.5t-110.5 23.5q-73 0 -136 -36.5t-110.5 -101.5t-74.5 -155t-27 -199z" />
<glyph unicode="e" horiz-adv-x="1348" d="M85 565q0 147 43.5 272.5t122 216.5t189.5 142t246 51q121 0 221 -42t171.5 -113t111.5 -164.5t40 -195.5h-911q0 -123 31.5 -228.5t88.5 -181.5t136.5 -119.5t174.5 -43.5q80 0 152.5 25.5t131.5 67.5t100.5 96t59.5 111l69 -31q-26 -94 -84.5 -177t-136.5 -144 t-171 -97t-187 -36q-124 0 -233 46.5t-190 127t-128.5 188t-47.5 229.5zM320 831l606 -2q0 69 -24.5 129t-67 104t-100 69t-123.5 25q-55 0 -105.5 -25t-89.5 -68.5t-65 -103t-31 -128.5z" />
<glyph unicode="f" horiz-adv-x="917" d="M34 1120v102h256v143q0 100 36 188.5t97.5 154t144.5 103t177 37.5q81 0 144 -16.5t106.5 -44.5t66 -66t22.5 -81q0 -27 -10 -48.5t-27 -36t-40 -22.5t-48 -8q-44 0 -67.5 17t-36 43t-20 56t-21 56.5t-39 43.5t-73.5 17q-36 0 -67.5 -21t-53.5 -55t-34.5 -78.5 t-12.5 -91.5v-290h326v-102h-326v-1120h-244v1120h-256z" />
<glyph unicode="g" horiz-adv-x="1440" d="M28 -314q0 50 25.5 96.5t64.5 89.5t87 82t94 76q-34 10 -63 24.5t-50 33.5t-33.5 41t-12.5 48q0 38 19.5 77.5t53.5 75.5t79 66.5t96 49.5q-124 52 -193.5 146t-69.5 216q0 90 41.5 170t114 140t171 94.5t210.5 34.5q55 0 108.5 -7.5t99.5 -19.5t82 -28t55 -34h348v-101 h-232q36 -50 58 -112t22 -124q0 -96 -42.5 -173.5t-117.5 -134t-179 -87t-229 -30.5q-46 0 -94 8t-84 19q-35 -28 -59 -65.5t-24 -76.5q0 -36 40.5 -59t113.5 -25l453 -20q108 -5 180 -25.5t115.5 -55.5t61 -83.5t17.5 -108.5q0 -107 -49.5 -193t-143.5 -147t-228 -94 t-304 -33q-303 0 -452.5 68t-149.5 181zM263 -197q0 -41 29 -78.5t86.5 -66t144 -45.5t201.5 -17q122 0 218.5 19.5t163.5 51t102.5 71t35.5 79.5q0 82 -81.5 119.5t-222.5 37.5q-88 0 -178 4t-167.5 9.5t-136.5 11.5t-84 11q-27 -20 -47.5 -45t-34.5 -53t-21.5 -56 t-7.5 -53zM396 852q0 -83 20.5 -154.5t57.5 -124.5t88.5 -83t114.5 -30q51 0 99 23t84.5 64t58 95.5t21.5 117.5q0 90 -24.5 167t-66.5 133.5t-98 89t-118 32.5q-61 0 -106.5 -25.5t-74.5 -70t-42.5 -104.5t-13.5 -130z" />
<glyph unicode="h" horiz-adv-x="1307" d="M142 0v1778l173 70h70v-849q110 124 229.5 186t243.5 62q64 0 120 -29t97.5 -79t65.5 -118t24 -144v-877h-242v836q0 121 -54.5 183.5t-141.5 62.5q-39 0 -82 -12.5t-87.5 -36t-88 -56t-84.5 -71.5v-906h-243z" />
<glyph unicode="i" horiz-adv-x="548" d="M133 1726q0 25 11.5 47t30 38.5t44 26.5t53.5 10t54 -10t44.5 -26.5t30 -38.5t11.5 -47t-11.5 -47t-30 -38.5t-44.5 -26.5t-54 -10t-53.5 10t-44 26.5t-30 38.5t-11.5 47zM154 0v1178l170 69h71v-1247h-241z" />
<glyph unicode="j" horiz-adv-x="576" d="M-323 -418q0 51 34 77.5t91 26.5q27 0 46.5 -12t35.5 -29.5t30 -38t31 -38t39 -29.5t51 -12q28 0 52.5 9.5t40 33.5t25 63.5t9.5 100.5v1444l171 69h71v-1247q0 -127 -15 -218t-42.5 -154t-70 -101t-96.5 -58t-120.5 -26t-143.5 -6q-56 0 -100.5 11.5t-75 31t-47 46.5 t-16.5 56zM142 1726q0 25 11.5 47t30.5 38.5t44 26.5t53 10t54 -10t44.5 -26.5t30 -38.5t11.5 -47t-11.5 -47t-30 -38.5t-44.5 -26.5t-54 -10t-53 10t-44 26.5t-30.5 38.5t-11.5 47z" />
<glyph unicode="k" horiz-adv-x="1200" d="M142 0v1778l173 70h70v-1119l613 493h158l-547 -444l677 -778h-320l-581 669v-669h-243z" />
<glyph unicode="l" horiz-adv-x="549" d="M154 0v1778l173 70h69v-1848h-242z" />
<glyph unicode="m" horiz-adv-x="2141" d="M142 0v1222h243v-229q47 51 105 97t120 81t125 55.5t118 20.5t110 -19.5t102.5 -54t81.5 -82t44 -102.5q31 53 84 100.5t117.5 82t136.5 55t141 20.5t130 -30.5t106.5 -82.5t72 -122t26.5 -148v-864h-244v828q0 51 -17.5 97.5t-47 81t-69.5 55t-84 20.5q-50 0 -102 -13.5 t-98.5 -37.5t-85 -56t-61.5 -67v-908h-243v828q0 51 -17.5 97.5t-48 81t-70.5 55t-84 20.5q-47 0 -96.5 -14t-96.5 -38t-87.5 -55.5t-67.5 -66.5v-908h-243z" />
<glyph unicode="n" horiz-adv-x="1302" d="M142 0v1222h243v-223q110 124 229.5 186t243.5 62q64 0 120 -29t97.5 -79t66 -118t24.5 -144v-877h-243v836q0 121 -54.5 183.5t-140.5 62.5q-39 0 -82 -12.5t-87.5 -36t-88.5 -56t-85 -71.5v-906h-243z" />
<glyph unicode="o" horiz-adv-x="1473" d="M91 595q0 135 48.5 254t134.5 207.5t204.5 139.5t258.5 51t258 -46.5t204.5 -128t134.5 -191.5t48 -235q0 -139 -48 -261t-134.5 -213.5t-204.5 -144.5t-258 -53t-258.5 49t-204.5 133t-134.5 197t-48.5 242zM363 707q0 -133 28.5 -250.5t82 -204.5t132 -137.5 t177.5 -50.5q72 0 131.5 37t103.5 99t67.5 145t23.5 175q0 133 -22.5 248.5t-74 202t-133 136t-201.5 49.5q-61 0 -118 -35.5t-101 -96.5t-70 -143t-26 -174z" />
<glyph unicode="p" horiz-adv-x="1393" d="M142 -515v1737h243v-249q36 47 81 95t99.5 88t120 65.5t143.5 25.5q108 0 197 -45.5t151.5 -123.5t96.5 -182.5t34 -223.5q0 -151 -42 -279t-119 -221t-187.5 -145.5t-248.5 -52.5q-51 0 -94.5 5t-82.5 16t-75.5 28t-73.5 41v-579h-243zM385 330q0 -55 23.5 -104 t67 -84.5t103.5 -56.5t132 -21q68 0 128 34.5t105 98.5t70.5 152t25.5 196q0 135 -24 236t-66.5 168t-100.5 100t-128 33q-53 0 -101.5 -16.5t-91 -44t-79 -63t-64.5 -74.5v-554z" />
<glyph unicode="q" horiz-adv-x="1393" d="M85 550q0 144 52.5 271t142.5 222t211 149.5t259 54.5q40 0 80 -7.5t75 -19.5t62 -29t42 -35l183 91h60v-1762h-243v706q-36 -40 -79 -78.5t-95 -69t-116.5 -50t-145.5 -19.5q-101 0 -189.5 45t-155 123.5t-105 183t-38.5 224.5zM339 677q0 -108 28.5 -202t77 -164.5 t114 -111t140.5 -40.5q55 0 104.5 14.5t90.5 36t70.5 48t44.5 50.5v617q0 50 -21.5 87.5t-51.5 64.5q-17 16 -42.5 30.5t-54.5 25t-60 17t-60 6.5q-79 0 -148 -38t-121 -103t-81.5 -152t-29.5 -186z" />
<glyph unicode="r" horiz-adv-x="935" d="M142 0v1222h241v-231q35 51 76.5 98t85.5 82t91.5 55.5t96.5 20.5q40 0 74 -12t59.5 -32t40.5 -46.5t15 -56.5q0 -59 -37 -89t-103 -30q-41 0 -65.5 8.5t-44.5 19t-40.5 19.5t-51.5 9q-24 0 -48.5 -14.5t-48.5 -40t-49.5 -60.5t-50.5 -75v-847h-241z" />
<glyph unicode="s" horiz-adv-x="1102" d="M82 200l99 90q44 -63 85 -106.5t82.5 -71.5t86.5 -41t97 -13q50 0 92.5 15.5t72.5 40.5t47 58t17 67q0 56 -28 97.5t-74 75t-105 60.5t-120 56.5t-120 63t-105 77t-74 101t-28 136.5q0 74 31.5 136.5t86.5 108t131.5 71t168.5 25.5q60 0 113.5 -8.5t104 -33t101 -69 t105.5 -115.5l-89 -80q-69 114 -155 169.5t-184 55.5q-51 0 -94.5 -13t-74 -35t-47.5 -51.5t-17 -62.5q0 -55 30.5 -96t80.5 -74t114 -61t131 -57t131 -62t114 -76.5t80.5 -101t30.5 -134.5t-29 -144.5t-87 -117t-146 -78t-206 -28.5q-53 0 -109.5 8.5t-114 33t-114.5 69 t-112 115.5z" />
<glyph unicode="t" horiz-adv-x="797" d="M14 1120v60q102 0 168 37t108 100t66 146t42 177h70v-418h274v-102h-274v-862q0 -27 10 -51t27.5 -41.5t42 -28t52.5 -10.5q41 0 74.5 20t58.5 50l60 -41q-49 -84 -129.5 -133t-199.5 -49q-61 0 -106 20.5t-74.5 58t-44 90t-14.5 115.5v862h-211z" />
<glyph unicode="u" horiz-adv-x="1326" d="M142 353v869h243v-869q0 -46 21 -86.5t57 -70t85 -47t105 -17.5q36 0 77 15.5t80.5 42.5t74 63t57.5 77v892h242v-1222h-242v229q-32 -52 -80 -99t-104.5 -81.5t-116.5 -54.5t-113 -20q-80 0 -150.5 30t-122.5 81.5t-82.5 120t-30.5 147.5z" />
<glyph unicode="v" horiz-adv-x="1221" d="M3 1222h255l433 -925l414 925h111l-550 -1236h-86z" />
<glyph unicode="w" horiz-adv-x="1888" d="M5 1222h261l387 -892l385 892l385 -892l343 892h116l-498 -1236h-84l-341 800l-343 -800h-77z" />
<glyph unicode="x" horiz-adv-x="1129" d="M-50 0l512 625l-432 596h285l299 -410l336 410h133l-406 -495l524 -726h-286l-389 539l-443 -539h-133z" />
<glyph unicode="y" horiz-adv-x="1281" d="M8 1221h276l473 -882l384 882h130l-624 -1435q-40 -90 -91 -156t-108.5 -108.5t-117.5 -63.5t-118 -21q-40 0 -76 10t-62.5 29t-42 45t-15.5 57q0 25 10 49.5t29 42.5t45.5 29.5t59.5 11.5q39 0 61 -8.5t40.5 -19.5t39 -19.5t55.5 -8.5q38 0 67.5 21.5t53.5 54t42 71.5 t33 72l82 183z" />
<glyph unicode="z" horiz-adv-x="1251" d="M13 0v64l879 1056h-879v102h1225v-51l-900 -1069h900v-102h-1225z" />
<glyph unicode="{" horiz-adv-x="763" d="M36 540v56q56 0 105 22.5t86 60.5t58 88.5t21 108.5q0 51 -5.5 91.5t-12.5 74.5t-12.5 64t-5.5 59q0 94 37 177.5t100 145.5t147.5 97.5t180.5 35.5v-41q-61 -6 -116 -35t-95 -76.5t-63.5 -108t-23.5 -126.5q0 -46 5.5 -83.5t13 -72t13 -65.5t5.5 -62q0 -57 -24 -115.5 t-67 -109.5t-100.5 -91.5t-123.5 -61.5q66 -16 123.5 -54.5t100.5 -91t67 -115t24 -125.5q0 -38 -5.5 -71t-13 -66.5t-13 -69.5t-5.5 -78q0 -71 23.5 -132.5t63.5 -109t95 -77.5t116 -35v-42q-96 0 -180.5 37t-147.5 100t-100 148t-37 181q0 35 5.5 67.5t12.5 66.5 t12.5 71.5t5.5 83.5q0 58 -21 109t-58 88.5t-86 59.5t-105 22z" />
<glyph unicode="|" horiz-adv-x="395" d="M142 -538v2123h112v-2123h-112z" />
<glyph unicode="}" horiz-adv-x="761" d="M28 -452q61 5 116 35t95.5 77.5t64 109.5t23.5 132q0 42 -6 78t-13.5 69.5t-13 66.5t-5.5 71q0 64 24.5 126t67 114.5t100 91.5t123.5 54q-66 20 -123.5 61t-100 92t-67 109.5t-24.5 115.5q0 31 5.5 62t13 65.5t13.5 72.5t6 83q0 66 -23.5 126.5t-64 108t-95 77 t-116.5 34.5v41q96 0 181.5 -35.5t148.5 -97.5t100 -145t37 -178q0 -30 -5.5 -59.5t-13 -63.5t-13.5 -74.5t-6 -91.5q0 -58 21 -108.5t58 -88.5t86 -60.5t105 -22.5v-56q-56 0 -105 -22t-86 -59.5t-58 -88.5t-21 -109q0 -46 6 -83.5t13.5 -71.5t13 -66.5t5.5 -67.5 q0 -96 -37 -181t-100 -148t-148.5 -100t-181.5 -37v42z" />
<glyph unicode="~" horiz-adv-x="1277" d="M30 609q0 183 92.5 278.5t258.5 95.5q52 0 107 -16t108.5 -40t105.5 -51t100.5 -51t93 -40t81.5 -16q50 0 85 17.5t60 47.5t42.5 68.5t32.5 80.5h56q0 -92 -23 -162.5t-65 -117.5t-102.5 -70.5t-134.5 -23.5q-67 0 -125.5 16t-111 39.5t-99.5 51t-92 51.5t-88 40t-87 16 q-43 0 -83.5 -18t-72 -47.5t-54 -68t-30.5 -80.5h-55z" />
<glyph unicode="&#xa9;" horiz-adv-x="1864" d="M85 825q0 116 32 224.5t89 202.5t136 171.5t173 133t200 86t219 30.5q118 0 227 -31t203.5 -86.5t170.5 -133t130.5 -172t84 -202t29.5 -223.5q0 -119 -31 -228t-87.5 -203t-134.5 -170.5t-171.5 -130.5t-200.5 -83.5t-220 -29.5q-118 0 -227.5 30t-204 85.5t-171 132.5 t-131 171.5t-85 202t-30.5 223.5zM228 825q0 -98 26 -188t73 -168.5t112 -143t143.5 -110t168 -71.5t183.5 -26q141 0 268.5 56t225 152t155 224.5t57.5 274.5q0 97 -26.5 187.5t-73.5 169.5t-112.5 143.5t-143.5 111t-167 72t-183 25.5q-148 0 -276.5 -58t-224 -156 t-150.5 -226t-55 -269zM492 823q0 112 31 200.5t90 149.5t143 94t189 33q295 0 383 -263l-136 -32q-71 172 -251 171q-79 0 -135 -30.5t-92 -81t-52.5 -114.5t-16.5 -130q0 -172 79 -259.5t216 -87.5q110 0 173.5 53t90.5 163l137 -42q-15 -73 -51.5 -129.5t-89.5 -96 t-119 -60.5t-141 -21q-109 0 -193 38t-140.5 104t-85.5 154t-29 187z" />
<glyph unicode="&#xad;" horiz-adv-x="698" d="M58 501v140h583v-140h-583z" />
<glyph unicode="&#xbc;" horiz-adv-x="1935" d="M125 1517l249 104h72v-843h-176v603q0 40 -1.5 64.5t-6 38t-12 19t-20.5 5.5q-22 0 -43 -8t-39 -17zM272 -58l1132 1679h131l-1133 -1679h-130zM1083 212v111l437 520h157v-540h133v-91h-133v-212h-176v212h-418zM1183 303h318v374z" />
<glyph unicode="&#xbd;" horiz-adv-x="1857" d="M125 1517l249 104h72v-843h-176v603q0 40 -1.5 64.5t-6 38t-12 19t-20.5 5.5q-22 0 -43 -8t-39 -17zM256 -58l1132 1679h130l-1132 -1679h-130zM1122 0v42q38 27 85 63.5t96 79.5t95.5 90t82.5 96.5t58 99.5t22 98q0 35 -14 66t-38 52.5t-57 34t-71 12.5 q-71 0 -117.5 -35.5t-68.5 -100.5h-56q8 51 33.5 95.5t65 77.5t90 52.5t109.5 19.5q140 0 218 -63t78 -184q0 -43 -20.5 -88.5t-53.5 -90.5t-75.5 -88t-88 -83t-89.5 -74.5t-79 -62.5h406v-109h-611z" />
<glyph unicode="&#xbe;" horiz-adv-x="2035" d="M125 836q0 26 21.5 36.5t44.5 10.5q24 0 47.5 -7.5t48.5 -17t53 -17t60 -7.5t59.5 11t47.5 30.5t31.5 46.5t11.5 59q0 55 -20 90t-55.5 56t-85 29.5t-107.5 8.5v76q41 0 78 8t65.5 26.5t45 48t16.5 72.5q0 65 -32 95t-99 30q-53 0 -89 -29.5t-66 -72.5l-66 21 q36 84 107.5 132.5t171.5 48.5q41 0 81 -10t71.5 -31.5t51.5 -54t20 -78.5q0 -26 -8.5 -52t-23 -49.5t-34 -44t-41.5 -36.5q75 -26 116.5 -77.5t41.5 -133.5q0 -79 -34 -136t-89 -92.5t-124.5 -53t-138.5 -17.5q-17 0 -47 3.5t-59 13t-50.5 25t-21.5 39.5zM385 -58 l1132 1679h107l-1132 -1679h-107zM1196 212v111l447 520h134v-540h133v-91h-133v-212h-165v212h-416zM1296 303h316v377z" />
<glyph unicode="&#x2000;" horiz-adv-x="924" />
<glyph unicode="&#x2001;" horiz-adv-x="1848" />
<glyph unicode="&#x2002;" horiz-adv-x="924" />
<glyph unicode="&#x2003;" horiz-adv-x="1848" />
<glyph unicode="&#x2004;" horiz-adv-x="616" />
<glyph unicode="&#x2005;" horiz-adv-x="462" />
<glyph unicode="&#x2006;" horiz-adv-x="308" />
<glyph unicode="&#x2007;" horiz-adv-x="308" />
<glyph unicode="&#x2008;" horiz-adv-x="231" />
<glyph unicode="&#x2009;" horiz-adv-x="369" />
<glyph unicode="&#x200a;" horiz-adv-x="102" />
<glyph unicode="&#x2010;" horiz-adv-x="698" d="M58 501v140h583v-140h-583z" />
<glyph unicode="&#x2011;" horiz-adv-x="698" d="M58 501v140h583v-140h-583z" />
<glyph unicode="&#x2012;" horiz-adv-x="698" d="M58 501v140h583v-140h-583z" />
<glyph unicode="&#x2013;" horiz-adv-x="1166" d="M57 711h1043l9 -118h-1044z" />
<glyph unicode="&#x2014;" horiz-adv-x="1885" d="M57 712h1762l9 -119h-1762z" />
<glyph unicode="&#x2018;" horiz-adv-x="543" d="M85 1314q0 81 30.5 149t81.5 119t118.5 81t143.5 36v-56q-55 -15 -102.5 -43t-82.5 -63.5t-55.5 -77.5t-20.5 -87q0 -26 10 -45.5t26 -19.5q15 0 25.5 6t21 13t24.5 13t36 6q24 0 45 -10.5t37.5 -28.5t26 -43t9.5 -54q0 -31 -13 -57t-35 -45.5t-51.5 -30.5t-63.5 -11 q-44 0 -82.5 19.5t-67 53.5t-45 79.5t-16.5 96.5z" />
<glyph unicode="&#x2019;" horiz-adv-x="543" d="M85 1065v56q55 15 102 42.5t82.5 63.5t56 78t20.5 87q0 26 -10.5 45t-26.5 19q-15 0 -25 -5.5t-20.5 -13t-24.5 -13t-36 -5.5q-24 0 -45 10t-37.5 28.5t-26 43t-9.5 53.5q0 31 12.5 57t35 46t52 31t63.5 11q44 0 82.5 -19.5t67 -53.5t45 -79.5t16.5 -96.5 q0 -81 -30.5 -149.5t-81.5 -119t-119 -81t-143 -35.5z" />
<glyph unicode="&#x201c;" horiz-adv-x="976" d="M85 1314q0 81 30.5 149t81.5 119t118.5 81t143.5 36v-56q-55 -15 -102.5 -43t-82.5 -63.5t-55.5 -77.5t-20.5 -87q0 -26 10 -45.5t26 -19.5q15 0 25.5 6t21 13t24.5 13t36 6q24 0 45 -10.5t37.5 -28.5t26 -43t9.5 -54q0 -31 -13 -57t-35 -45.5t-51.5 -30.5t-63.5 -11 q-44 0 -82.5 19.5t-67 53.5t-45 79.5t-16.5 96.5zM518 1314q0 81 30 149t81 119t119 81t143 36v-56q-55 -15 -102 -43t-82.5 -63.5t-56 -77.5t-20.5 -87q0 -26 10.5 -45.5t26.5 -19.5q15 0 25 6t21 13t24.5 13t36.5 6q24 0 45 -10.5t37.5 -28.5t25.5 -43t9 -54 q0 -31 -12.5 -57t-35 -45.5t-52 -30.5t-63.5 -11q-44 0 -82 19.5t-66.5 53.5t-45 79.5t-16.5 96.5z" />
<glyph unicode="&#x201d;" horiz-adv-x="976" d="M85 1065v56q55 15 102 42.5t82.5 63.5t56 78t20.5 87q0 26 -10.5 45t-26.5 19q-15 0 -25 -5.5t-20.5 -13t-24.5 -13t-36 -5.5q-24 0 -45 10t-37.5 28.5t-26 43t-9.5 53.5q0 31 12.5 57t35 46t52 31t63.5 11q44 0 82.5 -19.5t67 -53.5t45 -79.5t16.5 -96.5 q0 -81 -30.5 -149.5t-81.5 -119t-119 -81t-143 -35.5zM518 1065v56q55 15 102 42.5t82 63.5t55.5 78t20.5 87q0 26 -10 45t-26 19q-15 0 -25 -5.5t-21 -13t-24.5 -13t-36.5 -5.5q-24 0 -45 10t-37.5 28.5t-25.5 43t-9 53.5q0 31 12.5 57t34.5 46t51.5 31t63.5 11 q44 0 82.5 -19.5t67 -53.5t45 -79.5t16.5 -96.5q0 -81 -30 -149.5t-81.5 -119t-119 -81t-142.5 -35.5z" />
<glyph unicode="&#x2022;" horiz-adv-x="838" d="M85 905q0 68 26.5 129t71.5 105.5t105.5 71t130.5 26.5q69 0 130 -26.5t106.5 -71t71.5 -105.5t26 -129t-26 -128.5t-71.5 -105.5t-106.5 -71.5t-130 -26.5t-130 26.5t-106 71.5t-71.5 105.5t-26.5 128.5z" />
<glyph unicode="&#x202f;" horiz-adv-x="369" />
<glyph unicode="&#x205f;" horiz-adv-x="462" />
<glyph unicode="&#x25fc;" horiz-adv-x="1223" d="M0 0v1223h1223v-1223h-1223z" />
</font>
</defs>
</svg>
